<svg xmlns="http://www.w3.org/2000/svg" xmlns:xlink="http://www.w3.org/1999/xlink" preserveAspectRatio="xMidYMid" width="317" height="78" viewBox="0 0 317 78">
  <defs>
    <style>
      .cls-1 {
        fill: #5ab6a9;
      }

      .cls-2, .cls-3, .cls-4, .cls-5, .cls-6 {
        fill: #181818;
      }

      .cls-2, .cls-3, .cls-4, .cls-6 {
        fill-rule: evenodd;
      }

      .cls-3, .cls-5 {
        filter: url(#color-overlay-1);
      }

      .cls-4 {
        filter: url(#color-overlay-2);
      }

      .cls-6 {
        filter: url(#color-overlay-5);
      }
    </style>

    <filter id="color-overlay-1" filterUnits="userSpaceOnUse">
      <feFlood flood-color="#fff"/>
      <feComposite operator="in" in2="SourceGraphic"/>
      <feBlend in2="SourceGraphic" result="solidFill"/>
    </filter>
    <filter id="color-overlay-2" filterUnits="userSpaceOnUse">
      <feFlood flood-color="#5ab6a9"/>
      <feComposite operator="in" in2="SourceGraphic"/>
      <feBlend in2="SourceGraphic" result="solidFill"/>
    </filter>
    <filter id="color-overlay-5" filterUnits="userSpaceOnUse">
      <feFlood flood-color="#489288"/>
      <feComposite operator="in" in2="SourceGraphic"/>
      <feBlend in2="SourceGraphic" result="solidFill"/>
    </filter>
  </defs>
  <rect width="71" height="78" class="cls-1"/>
  <path d="M70.000,-0.000 L300.253,-0.000 L267.000,78.000 L70.000,78.000 L70.000,-0.000 Z" class="cls-2"/>
  <g>
    <path d="M20.000,19.000 L51.000,19.000 L51.000,53.933 L42.648,62.000 L20.000,62.000 L20.000,19.000 Z" class="cls-3"/>
    <path d="M23.000,22.000 L48.000,22.000 L48.000,51.933 L40.648,59.000 L23.000,59.000 L23.000,22.000 Z" class="cls-4"/>
    <path d="M41.000,52.000 L50.000,52.000 L41.000,60.000 L41.000,52.000 Z" class="cls-3"/>
    <rect x="31" y="32" width="24" height="11" class="cls-5"/>
    <path d="M52.000,37.000 L52.000,38.000 L49.000,38.000 L49.000,41.000 L48.000,41.000 L48.000,35.000 L48.000,34.000 L52.000,34.000 L52.000,35.000 L49.000,35.000 L49.000,37.000 L52.000,37.000 ZM45.000,35.000 L46.000,35.000 L46.000,40.000 L45.000,40.000 L45.000,35.000 ZM42.000,40.000 L45.000,40.000 L45.000,41.000 L42.000,41.000 L41.000,41.000 L41.000,34.000 L42.000,34.000 L45.000,34.000 L45.000,35.000 L42.000,35.000 L42.000,40.000 ZM36.000,39.000 L36.000,41.000 L35.000,41.000 L35.000,35.000 L35.000,34.000 L36.000,34.000 L39.000,34.000 L39.000,35.000 L39.000,38.000 L39.000,39.000 L38.000,39.000 L36.000,39.000 ZM38.000,35.000 L36.000,35.000 L36.000,38.000 L38.000,38.000 L38.000,35.000 Z" class="cls-6"/>
  </g>
</svg>
