<svg xmlns="http://www.w3.org/2000/svg" xmlns:xlink="http://www.w3.org/1999/xlink" preserveAspectRatio="xMidYMid" width="459" height="132" viewBox="0 0 459 132">
  <defs>
    <style>
      .cls-1 {
        fill: #59a69d;
        filter: url(#color-overlay-1);
        fill-rule: evenodd;
      }
    </style>

    <filter id="color-overlay-1" filterUnits="userSpaceOnUse">
      <feFlood flood-color="#ffffff"/>
      <feComposite operator="in" in2="SourceGraphic"/>
      <feBlend in2="SourceGraphic" result="solidFill"/>
    </filter>
  </defs>
  <path d="M23.000,2.000 L89.000,2.000 C89.000,2.000 89.000,-9.046 89.000,2.000 L89.000,24.000 L27.000,24.000 L27.000,52.000 L85.000,52.000 L85.000,76.000 L28.000,76.000 L27.000,105.000 L89.000,104.737 L89.000,108.000 C89.000,119.046 89.000,128.000 89.000,128.000 L22.000,128.000 C8.923,128.000 2.000,119.046 2.000,108.000 L2.000,24.000 C2.000,12.954 11.954,2.000 23.000,2.000 Z" class="cls-1"/>
  <path d="M200.526,63.387 C195.037,78.114 185.670,82.337 175.662,83.693 C166.772,84.771 135.000,84.000 135.000,84.000 L135.000,128.000 L110.000,128.000 L110.000,2.000 L135.000,2.000 C135.000,2.000 173.433,2.027 174.842,2.000 C181.375,1.877 202.934,10.484 203.000,33.953 C203.015,39.179 204.944,51.532 200.526,63.387 ZM178.000,31.000 C176.076,26.670 172.000,25.000 172.000,25.000 L135.000,24.370 L135.000,62.000 L172.000,61.000 C172.000,61.000 175.136,61.194 177.000,57.000 C179.119,52.231 180.000,43.000 180.000,43.000 C180.000,43.000 180.070,35.658 178.000,31.000 Z" class="cls-1"/>
  <path d="M400.759,2.000 C376.257,2.000 455.000,2.000 455.000,2.000 L455.000,24.000 L409.000,24.000 C409.000,24.000 403.215,25.785 400.000,29.000 C396.255,32.745 395.000,38.000 395.000,38.000 L394.000,93.000 C394.000,93.000 394.673,97.601 398.000,101.000 C401.363,104.435 407.000,106.000 407.000,106.000 L455.000,105.971 L455.000,128.000 L401.524,128.000 C401.524,128.000 386.869,124.732 378.000,115.000 C370.101,106.332 369.000,93.153 369.000,93.153 C369.000,93.153 369.000,55.158 369.000,37.801 C369.000,37.337 369.849,24.517 379.000,14.000 C386.711,5.139 400.885,2.000 400.759,2.000 Z" class="cls-1"/>
  <path d="M235.939,2.000 C235.939,2.000 246.301,2.000 252.313,2.000 C254.449,2.000 262.841,3.961 266.000,11.000 C275.232,31.572 279.934,100.054 284.000,100.000 C288.458,99.941 292.999,31.471 301.000,12.000 C304.081,4.502 312.207,2.000 314.313,2.000 C321.201,2.000 332.878,2.000 332.878,2.000 C332.878,2.000 339.821,2.566 344.000,6.000 C348.377,9.597 350.000,16.069 350.000,16.069 L350.000,128.000 L325.000,128.000 L324.856,29.017 C324.856,29.017 323.620,28.155 323.000,28.000 C322.705,27.926 322.226,27.929 322.079,28.334 C319.693,34.920 305.382,108.098 304.000,114.000 C303.677,115.378 298.309,128.000 290.180,128.000 C286.080,128.000 281.843,128.916 277.846,128.000 C272.189,126.704 266.371,123.385 265.000,117.000 C258.611,87.250 250.013,44.622 246.000,28.000 C245.673,26.647 243.000,27.000 243.000,27.000 L242.989,128.000 L218.000,128.000 L218.000,18.755 C218.000,18.755 219.186,11.496 224.000,7.000 C228.098,3.173 235.939,2.000 235.939,2.000 Z" class="cls-1"/>
</svg>
